<svg width="53" height="53" viewBox="0 0 53 53" fill="none" xmlns="http://www.w3.org/2000/svg">
<g id="Flickr logo">
<path id="Vector" d="M27.9722 2.94446C14.207 2.94446 2.94446 14.207 2.94446 27.9722C2.94446 41.7375 14.207 53 27.9722 53C41.7375 53 53 41.7375 53 27.9722C53 14.207 41.7375 2.94446 27.9722 2.94446ZM18.7924 34.2292C17.5383 34.2698 16.301 33.9323 15.2411 33.2607C14.1812 32.5891 13.3478 31.6144 12.8489 30.4631C12.35 29.3118 12.2089 28.0371 12.4437 26.8045C12.6785 25.5719 13.2785 24.4384 14.1658 23.5512C15.053 22.6639 16.1865 22.0639 17.4191 21.8291C18.6516 21.5943 19.9264 21.7355 21.0777 22.2343C22.229 22.7332 23.2037 23.5666 23.8753 24.6265C24.5469 25.6864 24.8843 26.9237 24.8438 28.1778C24.7924 29.7664 24.1383 31.2759 23.0144 32.3998C21.8905 33.5237 20.381 34.1778 18.7924 34.2292ZM37.5632 34.2292C36.3091 34.2698 35.0718 33.9323 34.0119 33.2607C32.9521 32.5891 32.1186 31.6144 31.6197 30.4631C31.1209 29.3118 30.9797 28.0371 31.2145 26.8045C31.4494 25.5719 32.0494 24.4384 32.9366 23.5512C33.8238 22.6639 34.9573 22.0639 36.1899 21.8291C37.4225 21.5943 38.6972 21.7355 39.8485 22.2343C40.9998 22.7332 41.9746 23.5666 42.6462 24.6265C43.3177 25.6864 43.6552 26.9237 43.6146 28.1778C43.5632 29.7664 42.9092 31.2759 41.7853 32.3998C40.6614 33.5237 39.1518 34.1778 37.5632 34.2292Z" fill="black"/>
</g>
</svg>
