<svg width="57" height="57" viewBox="0 0 57 57" fill="none" xmlns="http://www.w3.org/2000/svg">
<g id="insta logo">
<path id="Vector" d="M32.3238 29.0771C32.3095 29.8295 32.0721 30.5607 31.6417 31.178C31.2113 31.7952 30.6074 32.2709 29.9064 32.5445C29.2054 32.8182 28.439 32.8776 27.7042 32.7151C26.9695 32.5527 26.2995 32.1758 25.7792 31.6321C25.2589 31.0885 24.9117 30.4026 24.7817 29.6614C24.6516 28.9202 24.7446 28.1571 25.0487 27.4688C25.3528 26.7805 25.8545 26.198 26.4901 25.7952C27.1257 25.3923 27.8665 25.1872 28.6188 25.2059C29.6184 25.2429 30.5644 25.6678 31.256 26.3905C31.9477 27.1132 32.3307 28.0768 32.3238 29.0771Z" fill="black"/>
<path id="Vector_2" d="M35.0621 17.1783H22.1777C20.9028 17.1783 19.6802 17.6848 18.7787 18.5863C17.8772 19.4878 17.3707 20.7104 17.3707 21.9853V35.1595C17.3707 35.7907 17.4951 36.4158 17.7366 36.999C17.9782 37.5822 18.3323 38.1122 18.7787 38.5585C19.225 39.0049 19.755 39.359 20.3382 39.6006C20.9214 39.8421 21.5465 39.9665 22.1777 39.9665H35.0621C35.6934 39.9665 36.3184 39.8421 36.9017 39.6006C37.4849 39.359 38.0148 39.0049 38.4612 38.5585C38.9075 38.1122 39.2616 37.5822 39.5032 36.999C39.7448 36.4158 39.8691 35.7907 39.8691 35.1595V22.0091C39.8716 21.376 39.7491 20.7487 39.5088 20.163C39.2684 19.5773 38.9147 19.0448 38.4682 18.5961C38.0216 18.1473 37.4909 17.7911 36.9064 17.5478C36.3219 17.3045 35.6952 17.179 35.0621 17.1783ZM28.6187 35.5205C27.3433 35.5493 26.0882 35.1974 25.0136 34.5097C23.939 33.822 23.0937 32.8298 22.5855 31.6596C22.0773 30.4894 21.9293 29.1943 22.1604 27.9396C22.3915 26.6849 22.9912 25.5276 23.883 24.6152C24.7747 23.7029 25.9181 23.0769 27.1672 22.8172C28.4163 22.5576 29.7144 22.676 30.8959 23.1573C32.0774 23.6386 33.0887 24.4611 33.8007 25.5197C34.5127 26.5783 34.8932 27.8251 34.8935 29.1008C34.9038 29.9346 34.7496 30.7622 34.4398 31.5363C34.1299 32.3104 33.6704 33.0158 33.0875 33.612C32.5047 34.2083 31.81 34.6838 31.0432 35.0113C30.2764 35.3388 29.4525 35.5118 28.6187 35.5205ZM35.5917 22.6836C35.435 22.6836 35.2799 22.6524 35.1354 22.5917C34.9909 22.531 34.8599 22.4421 34.7502 22.3302C34.6405 22.2183 34.5543 22.0856 34.4965 21.9399C34.4387 21.7943 34.4106 21.6385 34.4137 21.4818C34.4137 21.1631 34.5403 20.8575 34.7657 20.6321C34.9911 20.4067 35.2968 20.2801 35.6155 20.2801C35.9342 20.2801 36.2399 20.4067 36.4652 20.6321C36.6906 20.8575 36.8172 21.1631 36.8172 21.4818C36.8219 21.6515 36.7899 21.8202 36.7234 21.9763C36.6569 22.1325 36.5574 22.2724 36.4318 22.3865C36.3062 22.5007 36.1573 22.5863 35.9955 22.6376C35.8337 22.6888 35.6628 22.7045 35.4944 22.6836H35.5917Z" fill="black"/>
<path id="Vector_3" d="M28.6188 4.74999C22.3199 4.7185 16.2665 7.19052 11.7902 11.6222C7.31398 16.054 4.78155 22.0823 4.75005 28.3812C4.71856 34.6801 7.19058 40.7336 11.6223 45.2098C16.054 49.6861 22.0824 52.2185 28.3813 52.25C31.5002 52.2656 34.5916 51.6667 37.4791 50.4876C40.3665 49.3084 42.9935 47.5721 45.2099 45.3777C47.4263 43.1834 49.1888 40.574 50.3968 37.6984C51.6047 34.8229 52.2345 31.7376 52.2501 28.6187C52.2656 25.4998 51.6668 22.4084 50.4876 19.521C49.3085 16.6335 47.5722 14.0066 45.3778 11.7902C43.1834 9.57376 40.574 7.81125 37.6985 6.6033C34.823 5.39534 31.7377 4.76559 28.6188 4.74999ZM43.0422 34.9172C43.0488 35.9827 42.8439 37.039 42.4392 38.0247C42.0346 39.0104 41.4383 39.906 40.685 40.6595C39.9317 41.4131 39.0363 42.0096 38.0507 42.4145C37.0651 42.8194 36.0089 43.0247 34.9434 43.0184H22.2989C21.2334 43.025 20.1772 42.82 19.1915 42.4154C18.2058 42.0108 17.3102 41.4145 16.5567 40.6612C15.8031 39.9079 15.2066 39.0125 14.8017 38.0269C14.3968 37.0413 14.1915 35.9851 14.1978 34.9196V22.2727C14.1912 21.2072 14.3961 20.151 14.8008 19.1653C15.2054 18.1796 15.8016 17.284 16.555 16.5305C17.3083 15.7769 18.2037 15.1804 19.1893 14.7755C20.1749 14.3706 21.231 14.1653 22.2966 14.1716H34.9434C36.0087 14.1653 37.0647 14.3705 38.0501 14.7753C39.0356 15.18 39.9309 15.7763 40.6842 16.5296C41.4375 17.2829 42.0338 18.1782 42.4385 19.1637C42.8433 20.1491 43.0485 21.2051 43.0422 22.2704V34.9172Z" fill="black"/>
</g>
</svg>
